<?xml version="1.0" encoding="UTF-8"?>
<svg id="Layer_4" data-name="Layer 4" xmlns="http://www.w3.org/2000/svg" width="1080" height="400" viewBox="0 0 1080 400">
  <defs>
    <style>
      .cls-1 {
        fill: #fbc926;
      }

      .cls-2 {
        fill: #2e4688;
      }
    </style>
  </defs>
  <g>
    <path class="cls-2" d="M663.44,218.69c-8.98,0-17.78,0-26.59,0s-17.74,0-26.6,0c-8.79,0-17.58-.02-26.63,.02,.24,1.69,.35,3.09,.65,4.46,2.92,13.55,12.82,23.29,26.45,25.65,7.92,1.37,15.71,.61,23.09-2.83,5.64-2.63,9.91-6.74,12.77-12.28,.2-.38,.42-.75,.65-1.16h15c-.2,.66-.33,1.22-.53,1.76-3.5,9.6-9.89,16.78-18.6,21.95-6.64,3.94-13.85,6.12-21.56,6.76-12.21,1.02-23.4-1.79-33.25-9.11-10.97-8.15-17.24-19.14-18.87-32.71-2.66-22.04,10.17-42.75,31.09-50.22,7.01-2.5,14.23-3.38,21.64-2.53,15.58,1.79,27.58,9.28,35.67,22.75,3.55,5.9,5.5,12.37,5.86,19.26,.12,2.28,0,4.58-.03,6.87,0,.37-.11,.74-.2,1.35Zm-15.66-13.45c0-.22,.01-.33,0-.44-.04-.22-.08-.43-.14-.64-2.1-7.12-5.98-13.01-12.33-17-8.08-5.09-16.95-6.42-26.15-4.27-11.59,2.71-19.49,9.89-23.74,21.02-.16,.43-.22,.9-.34,1.35,1.75,.36,61.33,.32,62.7-.02Z"/>
    <path class="cls-2" d="M476.24,184.16c.06-4.61-.03-9.23,.05-13.92h13.74v90.73c-1.2,.32-10.88,.42-13.62,.13-.05-.53-.14-1.1-.14-1.67-.01-3.56,0-7.11-.01-10.67,0-.52-.06-1.03-.09-1.55l-.45-.25c-.15,.28-.26,.6-.46,.84-6.3,7.76-14.53,12.33-24.19,14.39-20.1,4.27-40.33-4.65-50.66-22.45-16.01-27.6-1.35-63.07,30.39-70.43,12.82-2.97,25-.75,36.09,6.56,3.18,2.09,5.93,4.66,8.31,7.63,.2,.25,.43,.48,.65,.71l.38-.07Zm-67.94,31.48c-.03,19.02,14.76,33.91,33.73,33.96,19.13,.05,34.08-14.74,34.12-33.75,.03-19.57-14.29-33.94-33.79-34.03-18.53-.09-34.06,14.44-34.06,33.83Z"/>
    <path class="cls-2" d="M131.59,261.24v-90.96c.53-.04,1-.11,1.48-.11,11.44,0,22.89-.14,34.33,.05,10.1,.17,19.75,2.37,28.5,7.68,10.79,6.56,17.17,16.16,19.27,28.56,1.34,7.92,1.12,15.81-1.17,23.55-3.68,12.44-11.8,20.99-23.51,26.25-6.3,2.83-12.94,4.35-19.83,4.71-3.06,.16-6.13,.23-9.19,.24-9.25,.03-18.51,.01-27.76,.01h-2.11Zm13.88-13.64c.6,.04,1.03,.09,1.45,.09,6.4,0,12.81,0,19.21,0,5.51,0,10.9-.81,16.09-2.71,9.37-3.44,15.69-9.78,18.18-19.57,1.56-6.14,1.58-12.35,.22-18.53-2-9.12-7.34-15.59-15.82-19.46-4.78-2.18-9.85-3.39-15.07-3.56-7.55-.25-15.1-.18-22.66-.23-.52,0-1.04,.1-1.61,.17v63.81Z"/>
    <path class="cls-2" d="M232.77,170.25h13.87c.04,.66,.11,1.34,.11,2.02,0,15.76,0,31.51,.02,47.27,0,2.24,.08,4.49,.26,6.72,.3,3.63,1.24,7.1,2.9,10.36,3.14,6.14,8.12,10.07,14.69,11.99,6.29,1.84,12.66,1.92,18.96,.19,9.87-2.71,15.72-9.32,17.74-19.27,.52-2.55,.7-5.21,.71-7.82,.06-16.47,.03-32.94,.03-49.4v-2.03h13.88c.03,.54,.1,1.07,.1,1.59,0,17.23,.03,34.47-.01,51.7-.02,7.07-1.64,13.77-5.09,19.97-4.41,7.92-10.95,13.49-19.41,16.62-11.76,4.36-23.62,4.36-35.24-.42-12.49-5.13-19.83-14.68-22.59-27.81-.7-3.33-.94-6.71-.94-10.11,.01-16.47,0-32.94,0-49.4v-2.17Z"/>
    <path class="cls-2" d="M755.72,261.15c-.82,.04-1.3,.08-1.77,.08-4.38,0-8.76-.03-13.14,.03-1.16,.02-1.88-.36-2.58-1.3-7.98-10.83-16.01-21.63-24.03-32.44-.42-.57-.86-1.12-1.44-1.89-.45,.54-.84,.95-1.18,1.41-5.64,7.6-11.27,15.2-16.91,22.81-2.57,3.47-5.15,6.94-7.72,10.42-.4,.54-.76,1-1.56,.99-5.09-.03-10.18-.02-15.33-.02-.11-.75,.44-1.12,.77-1.56,8-10.69,16.01-21.37,24.01-32.05,2.82-3.76,5.64-7.53,8.46-11.3,.32-.43,.62-.88,.99-1.42-5.57-7.44-11.11-14.83-16.64-22.22-5.54-7.39-11.08-14.78-16.77-22.37,.63-.07,1.03-.15,1.43-.15,4.49,0,8.98,.03,13.47-.03,1.18-.02,1.87,.39,2.56,1.33,7.62,10.35,15.29,20.67,22.94,31,.42,.56,.85,1.11,1.42,1.86,.48-.59,.86-1.02,1.2-1.48,7.76-10.39,15.53-20.77,23.24-31.19,.79-1.07,1.59-1.55,2.96-1.52,4.76,.09,9.52,.04,14.24,.04,.07,.11,.1,.15,.12,.2,.02,.05,.03,.1,.02,.15,0,.05-.02,.11-.05,.16-.08,.14-.17,.28-.26,.41-10.88,14.54-21.76,29.08-32.64,43.62-.03,.04-.03,.1-.13,.4,11.32,15.19,22.74,30.5,34.32,46.04Z"/>
    <path class="cls-2" d="M353.54,261.15h-13.46c-.37-1.15-.48-88.78-.1-90.88h13.44c.04,.53,.11,1.11,.12,1.68,0,4.54,0,9.08,.01,13.62,0,.52,.06,1.03,.26,1.64,4.41-7.52,10.6-12.75,18.87-15.4,4.24-1.36,8.59-1.99,13.17-1.96v14.12c-1.16,.06-2.24,.1-3.32,.16-4.93,.27-9.61,1.47-13.94,3.87-7.06,3.91-11.28,9.99-13.44,17.64-1.23,4.35-1.58,8.82-1.59,13.31-.03,13.35,0,26.69,0,40.04v2.17Z"/>
    <path class="cls-2" d="M557.72,248.4v12.59c-.88,.2-1.71,.44-2.56,.57-5.09,.81-10.2,1.29-15.35,.7-3.83-.44-7.52-1.34-10.97-3.14-6.56-3.42-10.27-8.97-11.91-16.04-.71-3.05-.93-6.16-.94-9.28-.02-11.76,0-23.51,0-35.27,0-.53,.05-1.07,.09-1.69h13.75c.02,.61,.06,1.24,.06,1.87,0,11.59-.03,23.18,.03,34.77,0,1.95,.22,3.94,.65,5.84,1.34,5.96,5.46,9.47,11.51,10.29,4.58,.62,9.05-.02,13.52-.82,.64-.11,1.27-.24,2.12-.4Z"/>
    <path class="cls-2" d="M516.09,143.19h13.79v26.93h26.5v13.61h-40.29v-40.54Z"/>
  </g>
  <g>
    <path class="cls-1" d="M801.57,152.53c0,19.41-.22,38.82-.22,58.24,0,1.93,3,1.93,3,0,0-19.41,.22-38.82,.22-58.24,0-1.93-3-1.93-3,0h0Z"/>
    <path class="cls-1" d="M802.53,213c12.11,2.66,24.72,2.41,36.71-.76,1.86-.49,1.07-3.39-.8-2.89-11.46,3.04-23.53,3.31-35.11,.76-1.88-.41-2.69,2.48-.8,2.89h0Z"/>
    <path class="cls-1" d="M873.99,164.17l-.91-5.98c-.25-1.66-2.41-1.17-2.89,0-7.51,18.04-15.03,36.08-22.54,54.12-.74,1.78,2.16,2.56,2.89,.8,7.51-18.04,15.03-36.08,22.54-54.12h-2.89l.91,5.98c.29,1.9,3.18,1.09,2.89-.8h0Z"/>
    <path class="cls-1" d="M871.74,164.08c7.87,13.68,14.97,27.78,21.26,42.25,.77,1.77,3.35,.24,2.59-1.51-6.29-14.47-13.39-28.58-21.26-42.25-.96-1.67-3.56-.16-2.59,1.51h0Z"/>
    <path class="cls-1" d="M849.9,195.59c-1.46,6.34,7.05,7.82,11.53,7.19,8.37-1.18,16.56-3.48,24.35-6.74,.75-.31,1.27-.99,1.05-1.85-.19-.71-1.1-1.36-1.85-1.05-6.65,2.78-13.59,4.86-20.68,6.14-2.67,.48-5.36,1.02-8.05,.35-1.52-.38-3.92-1.27-3.46-3.25,.43-1.88-2.46-2.68-2.89-.8h0Z"/>
    <path class="cls-1" d="M910.4,162.86c1.17,14.79,1.78,29.62,2.94,44.4,.15,1.91,3.15,1.93,3,0-1.17-14.79-1.78-29.62-2.94-44.4-.15-1.91-3.15-1.93-3,0h0Z"/>
    <path class="cls-1" d="M909.99,163.21c4.29-1.08,8.3-2.49,12.34-4.28s8.86-3.58,13.56-2.61c4.34,.9,7.45,4.66,6.37,9.19-1.16,4.85-5.45,8.76-9.54,11.28-5.92,3.64-12.77,6.06-19.49,7.72l1.16,2.74c5.76-3.53,12.28-5.8,19.02-6.45,3.08-.3,6.84-.66,9.67,.86,2.06,1.11,3.2,3.2,3.5,5.47,.67,5.01-1.82,9.9-5.14,13.47-3.57,3.84-8.25,6.52-13.3,7.87-5.74,1.53-11.82,1.26-17.33-.99-1.79-.73-2.56,2.17-.8,2.89,11.06,4.53,24.6,1.39,32.95-7.04,4.05-4.08,7.04-9.63,6.67-15.53-.17-2.69-1.07-5.37-3.05-7.27-2.54-2.44-6.09-2.98-9.47-2.94-8.53,.09-16.98,2.6-24.25,7.06-1.45,.89-.51,3.15,1.16,2.74,6.71-1.66,13.39-4.12,19.41-7.55,4.83-2.75,9.51-7.05,11.38-12.42,1.72-4.94-.25-10.54-5.02-12.92-4.48-2.23-9.98-1.64-14.56-.04-2.72,.95-5.29,2.32-7.96,3.39s-5.35,1.77-8.09,2.45c-1.87,.47-1.08,3.36,.8,2.89h0Z"/>
    <path class="cls-1" d="M916.11,238.65l.37-1.41-2.89-.8-2.97,18.17c-.13,.8,.21,1.61,1.05,1.85,.72,.2,1.71-.24,1.85-1.05l2.97-18.17c.3-1.86-2.39-2.71-2.89-.8l-.37,1.41c-.49,1.87,2.4,2.67,2.89,.8h0Z"/>
    <path class="cls-1" d="M939.76,233.04c2.71,6.39,5.93,12.56,9.62,18.44,1.02,1.63,3.62,.13,2.59-1.51-3.69-5.88-6.91-12.04-9.62-18.44-.32-.75-1.42-.91-2.05-.54-.77,.45-.86,1.3-.54,2.05h0Z"/>
    <path class="cls-1" d="M960.03,217.39c10.52,3.36,21.44,5.33,32.47,5.89,1.93,.1,1.92-2.9,0-3-10.77-.54-21.4-2.5-31.67-5.78-1.84-.59-2.63,2.31-.8,2.89h0Z"/>
    <path class="cls-1" d="M960.96,182.02c-.26,.03-.36-.07-.19,.05,.76,.51,.37-.57,.63,1.28l.16,1.12,.02-.02c.09-.21-.28,.18-.12,.09,.36-.19,.71-.41,1.07-.6,1.39-.72,2.82-1.38,4.24-2.05,3.85-1.85,7.71-3.73,11.32-6.02,1.77-1.12,3.56-2.35,4.98-3.9,1.3-1.42-.82-3.55-2.12-2.12-2.94,3.22-7.3,5.26-11.12,7.21-2.01,1.02-4.04,2-6.08,2.97-1.23,.59-2.54,1.12-3.68,1.86-.69,.45-1.29,1.1-1.04,2.01s1.11,1.24,1.94,1.14,1.49-.62,1.5-1.5c0-.73-.7-1.6-1.5-1.5h0Z"/>
    <path class="cls-1" d="M652.23,63.06c-3.09-8.03-12.7-10.51-20.42-8.4-9.67,2.64-15.48,12.15-19.92,20.41-5.09,9.47-10.88,19.88-9.44,31.02,.6,4.62,2.36,9.17,5.61,12.59,3.45,3.64,8.26,5.43,13.19,5.72,5.91,.35,11.84-1.19,17.43-2.94,4.85-1.51,10.43-3.29,12.37-8.5,.68-1.81-2.22-2.59-2.89-.8-1.44,3.87-6.36,5.17-9.89,6.28-4.51,1.42-9.14,2.71-13.88,2.95-4.41,.23-8.95-.55-12.52-3.31-3.3-2.55-5.25-6.43-6.12-10.45-2.13-9.82,2.56-19.36,7.01-27.82,4.09-7.77,8.45-16.58,16.49-20.96,6.32-3.44,17.14-2.69,20.09,4.96,.69,1.78,3.59,1.01,2.89-.8h0Z"/>
    <path class="cls-1" d="M659.95,87.97c.57-.06,.94,.87,.8,.96-.64-.08-.84-.03-.58,.16,.08,.11,.13,.22,.15,.35,.02,.91,.16,1.83,.15,2.76-.03,2.15-.12,4.29-.27,6.43-.3,4.38-.86,8.74-1.66,13.05-1.62,8.69-4.22,17.2-7.76,25.3l2.74,1.16c1.24-9.16,2.49-18.68,6.64-27.06,3.68-7.44,9.89-13.56,18.08-15.72,4.17-1.1,8.63-.94,12.55,.96,1.73,.84,3.25-1.75,1.51-2.59-7.92-3.84-17.12-1.83-24.09,3.1-7.89,5.59-12.2,14.38-14.57,23.54-1.44,5.57-2.24,11.28-3.01,16.97-.1,.75,.12,1.45,.87,1.77,.62,.26,1.57,.07,1.87-.61,3.68-8.42,6.43-17.2,8.1-26.24,.83-4.5,1.41-9.06,1.73-13.62,.16-2.29,.25-4.59,.27-6.89,.02-1.69,.01-3.67-1.33-4.91s-3.29-.83-4.06,.81c-.67,1.43,0,3.54,1.86,3.33s1.92-3.21,0-3h0Z"/>
    <path class="cls-1" d="M702.05,109.08c12,1.25,24.35-3.6,32.33-12.63,.44-.5,.59-1.22,.23-1.82-3.72-6.23-11.97-8.28-18.61-6.05-7.07,2.37-12.76,8.65-15.75,15.35-2.57,5.77-3.63,12.55-1.98,18.73,1.74,6.49,6.84,11.29,13.61,12.06,9.3,1.05,17.99-5.58,24.66-11.21,1.48-1.25-.65-3.36-2.12-2.12-5.38,4.54-11.88,9.61-19.14,10.35-5.91,.6-11.37-2.49-13.53-8.06-4.23-10.9,2.02-24.96,11.78-30.69,5.86-3.44,14.67-3.25,18.49,3.16l.23-1.82c-7.52,8.51-18.92,12.93-30.21,11.75-1.92-.2-1.9,2.8,0,3h0Z"/>
    <path class="cls-1" d="M784.89,99.53c2.06-3.44,2.54-7.49,.66-11.12-1.67-3.23-5.03-5.59-8.57-6.3-8.57-1.7-16.04,4.59-19.88,11.66-2.14,3.95-3.63,8.28-5.02,12.54s-2.29,8.78-.02,12.76c3.28,5.76,11.35,7.18,17.21,5.14,8.61-3,10.16-12.25,13.87-19.43,.88-1.71-1.7-3.23-2.59-1.51-2.76,5.34-4,12.47-8.94,16.35-4.08,3.2-10.88,3.45-15.01,.2-2.62-2.07-3.29-5.31-2.74-8.5,.67-3.89,2.25-7.78,3.71-11.43,2.64-6.62,7-13.35,14.49-14.84,3.51-.7,7.21,.37,9.64,3.04,2.63,2.88,2.54,6.71,.61,9.93-.99,1.66,1.6,3.17,2.59,1.51h0Z"/>
    <path class="cls-1" d="M785.3,86.56c-2.21,6.92-4.43,13.85-6.24,20.89s-3.07,13.97-3.97,21.08c-.24,1.91,2.76,1.89,3,0,1.78-14.13,5.77-27.64,10.1-41.17,.59-1.84-2.31-2.63-2.89-.8h0Z"/>
    <path class="cls-1" d="M819.27,72.36c3.03-.11,2.48-4.67-.26-4.81-3.33-.17-3.95,4.93-4.58,7.19-2.05,7.44-3.73,14.99-5.04,22.59-.68,3.94-1.25,7.89-1.73,11.85-.36,2.98-.61,5.97-.07,8.94,.51,2.78,1.91,5.35,4.29,6.93s5.51,1.76,8.28,1.13c7.57-1.73,11.29-8.88,17.35-12.95,1.59-1.07,.09-3.67-1.51-2.59-4.45,2.99-7.46,7.64-11.9,10.58-3.5,2.32-9.18,3.83-12.14-.15s-1.57-9.91-.99-14.29c.81-6.08,1.87-12.14,3.15-18.14,.74-3.46,1.56-6.9,2.46-10.32,.45-1.71,.92-3.42,1.4-5.12,.19-.67,.33-1.38,.61-2.02,.04-.09,.35-.53,.34-.59,.21-.19,.02-.3-.56-.32,.12,.46,.42,.15,.9-.94-1.92,.07-1.93,3.07,0,3h0Z"/>
    <path class="cls-1" d="M795.94,94.27c-2.14,2.42-.22,4.89,2.28,5.92,3.36,1.38,6.88,.19,10.27-.52,8.51-1.77,16.95-3.89,25.29-6.35,4.74-1.4,9.45-2.91,14.13-4.53,1.81-.63,1.03-3.53-.8-2.89-9.05,3.13-18.23,5.86-27.52,8.17-4.65,1.15-9.32,2.2-14.01,3.15-1.82,.37-3.66,.96-5.51,.46-.41-.11-2.41-.82-2.02-1.27,1.27-1.44-.84-3.57-2.12-2.12h0Z"/>
    <path class="cls-1" d="M857.16,95.5l.26-1.41c.35-1.88-2.51-2.7-2.89-.8-2.9,14.24-5.79,28.47-8.69,42.71-.38,1.88,2.51,2.69,2.89,.8,2.9-14.24,5.79-28.47,8.69-42.71l-2.89-.8-.26,1.41c-.35,1.89,2.54,2.7,2.89,.8h0Z"/>
    <path class="cls-1" d="M861.3,68.44c-.07-.07-.13-.14-.19-.21l.23,.3c-.07-.1-.14-.2-.19-.31l.15,.36c-.04-.09-.07-.19-.08-.29l.05,.4c-.01-.1-.01-.19,0-.29l-.05,.4c.02-.11,.05-.22,.09-.33l-.15,.36c.06-.14,.14-.27,.23-.4l-.23,.3c.14-.18,.3-.33,.48-.47l-.3,.23c.25-.19,.52-.34,.8-.47l-.36,.15c.27-.11,.56-.2,.85-.24l-.4,.05c.2-.03,.4-.03,.6,0l-.4-.05c.14,.02,.28,.05,.41,.11l-.36-.15c.09,.04,.17,.09,.25,.14l-.3-.23c.08,.06,.14,.13,.2,.2l-.23-.3c.06,.08,.11,.17,.15,.27l-.15-.36c.05,.13,.08,.26,.1,.4l-.05-.4s0,.09,.01,.13c.03,.4,.15,.77,.44,1.06,.26,.26,.69,.46,1.06,.44s.79-.14,1.06-.44,.47-.67,.44-1.06c-.03-.51-.13-.99-.39-1.44-.23-.38-.57-.73-.96-.95-.76-.42-1.6-.44-2.43-.28-.38,.07-.73,.22-1.08,.38-.24,.11-.48,.24-.69,.39-.69,.5-1.26,1.1-1.52,1.93-.32,.99,.06,2.07,.8,2.77,.28,.27,.67,.44,1.06,.44,.37,0,.81-.16,1.06-.44,.54-.59,.61-1.54,0-2.12h0Z"/>
    <path class="cls-1" d="M871.01,84.58c.74,5.31,1.48,10.63,2.26,15.94,.4,2.74,.82,5.49,1.26,8.23,.2,1.29,.41,2.57,.63,3.86,.07,.4,.14,.79,.2,1.19,0,.02,.03,.23,0,.06-.03-.2,.02,.2,.03,.23,.27,2.41,.42,4.82,.62,7.24,.16,1.87,.13,4.02,.74,5.81,.45,1.33,2.12,1.85,2.97,.54,.55-.84,.54-2.14,.65-3.09,.22-1.92-2.79-1.9-3,0-.05,.41-.08,.78-.16,1.18-.02,.12-.1,.29-.09,.41,0,.04-.05,.09-.04,.13-.1-.51,1.35-.18,1.27-.18,.31,0,1.34-.26,1.29,.22,0-.03-.04-.07-.03-.11,0-.1-.06-.22-.08-.33-.02-.14-.05-.28-.08-.42-.02-.09-.08-.53-.06-.35-.29-2.09-.41-4.2-.58-6.31-.51-6.42-1.7-12.73-2.64-19.1-.78-5.31-1.52-10.62-2.26-15.94-.26-1.9-3.16-1.09-2.89,.8h0Z"/>
    <path class="cls-1" d="M908.45,84.82l-33.4,47.12c-1.12,1.58,1.48,3.08,2.59,1.51l33.4-47.12c1.12-1.58-1.48-3.08-2.59-1.51h0Z"/>
    <path class="cls-1" d="M910.04,114.71l-5.88,2.23c-1.51,.57-1.39,2.94,.4,2.95,14.67,.09,29.2-3.06,42.54-9.12,.88-.4,.95-1.74,.3-2.36-5.19-4.94-12.29-8.05-19.52-7.9-6.94,.14-13.23,3.46-17.04,9.28-3.48,5.31-4.51,12.28-1.62,18.07,3.09,6.22,9.85,9.66,16.52,10.46,9.18,1.09,18.08-3.25,25.57-8.1,1.61-1.05,.11-3.64-1.51-2.59-6.14,3.98-13.01,7.56-20.47,7.84-5.87,.22-12.19-1.92-15.94-6.62-3.55-4.45-3.59-10.55-1.11-15.52,2.63-5.27,7.52-8.88,13.39-9.66,7.14-.95,14.48,1.97,19.62,6.87l.3-2.36c-12.86,5.84-26.92,8.8-41.03,8.71l.4,2.95,5.88-2.23c1.79-.68,1.01-3.58-.8-2.89h0Z"/>
  </g>
</svg>